<svg width="103" height="18" viewBox="0 0 103 18" fill="none" xmlns="http://www.w3.org/2000/svg">
<path d="M28.402 16.178C27.8447 16.7353 27.1187 17.014 26.224 17.014C25.344 17.014 24.64 16.7207 24.112 16.134C23.584 15.562 23.32 14.8067 23.32 13.868C23.32 12.9147 23.4887 11.822 23.826 10.59L24.816 7.334C23.584 8.88867 22.4547 10.3773 21.428 11.8C19.404 14.6013 18.0327 16.4787 17.314 17.432L16.918 17.322L16.06 6.674L14.3 9.886C12.628 13.0393 11.2273 15.1147 10.098 16.112C8.98333 17.124 7.49467 17.63 5.632 17.63C4.048 17.63 2.73533 17.0653 1.694 15.936C0.872667 15.012 0.462 13.9047 0.462 12.614C0.462 12.3793 0.476667 12.1373 0.506 11.888L0.946 11.932C0.916667 12.1667 0.902 12.394 0.902 12.614C0.902 13.802 1.276 14.8067 2.024 15.628C2.97733 16.6693 4.18 17.19 5.632 17.19C7.37733 17.19 8.78533 16.6987 9.856 15.716C10.9267 14.748 12.276 12.7387 13.904 9.688L17.864 2.494C16.3093 2.46467 14.7987 2.22267 13.332 1.768C11.88 1.29867 10.5747 1.064 9.416 1.064C8.272 1.064 7.31133 1.46733 6.534 2.274C5.75667 3.08067 5.368 4.122 5.368 5.398H4.928C4.928 3.99 5.35333 2.846 6.204 1.966C7.06933 1.07133 8.184 0.623999 9.548 0.623999C10.648 0.623999 11.9533 0.865999 13.464 1.35C14.9893 1.81933 16.632 2.054 18.392 2.054L19.316 13.934L19.756 13.318C22.8507 9.06467 25.2413 6.02867 26.928 4.21C28.6147 2.37667 29.9787 1.46 31.02 1.46V1.9C30.5653 1.9 29.986 2.14933 29.282 2.648C29.1793 2.97067 28.8347 4.09267 28.248 6.014C27.6613 7.92067 27.1333 9.59267 26.664 11.03C26.2093 12.4527 25.982 13.6187 25.982 14.528C25.982 15.4373 26.1433 16.112 26.466 16.552C26.774 16.552 27.06 16.486 27.324 16.354C27.6027 16.2367 27.808 16.112 27.94 15.98L28.116 15.804L28.402 16.178ZM38.0679 14.198C36.7772 14.198 36.0732 13.6333 35.9559 12.504C35.3106 13.6333 34.4966 14.198 33.5139 14.198C32.5312 14.198 31.7466 13.9047 31.1599 13.318C30.5879 12.7167 30.3019 11.8807 30.3019 10.81C30.3019 9.138 30.7126 7.82533 31.5339 6.872C32.3552 5.91867 33.4186 5.442 34.7239 5.442C35.7946 5.442 36.5059 5.948 36.8579 6.96C36.9312 6.52 37.0119 6.08 37.0999 5.64C38.1852 5.64 38.9919 5.596 39.5199 5.508L39.8059 5.442L38.2879 13.758C38.7279 13.714 39.0946 13.5087 39.3879 13.142L39.7179 13.406C39.2779 13.934 38.7279 14.198 38.0679 14.198ZM32.7879 11.932C32.7879 12.592 32.8686 13.054 33.0299 13.318C33.2059 13.5673 33.4699 13.692 33.8219 13.692C34.1739 13.692 34.5332 13.5013 34.8999 13.12C35.3839 12.6213 35.7726 11.9907 36.0659 11.228C36.1099 11.0373 36.1906 10.5827 36.3079 9.864C36.4399 9.13067 36.5499 8.52933 36.6379 8.06C36.5939 7.50267 36.4399 7.01867 36.1759 6.608C35.9119 6.19733 35.5819 5.992 35.1859 5.992C34.4672 5.992 33.8879 6.63733 33.4479 7.928C33.0079 9.204 32.7879 10.5387 32.7879 11.932ZM42.3222 5.64L42.9162 2.384C44.0015 2.384 44.8082 2.34 45.3362 2.252L45.6222 2.186C45.4168 3.21267 45.1895 4.364 44.9402 5.64H47.6682L47.6242 6.036H44.8742C44.1408 9.82 43.7742 12.1007 43.7742 12.878C43.7742 13.3473 44.0235 13.582 44.5222 13.582C45.0208 13.582 45.4755 13.2667 45.8862 12.636C46.2968 12.0053 46.5902 11.3233 46.7662 10.59L47.1622 10.722C46.6195 13.0393 45.4975 14.198 43.7962 14.198C43.0922 14.198 42.5055 14.0073 42.0362 13.626C41.5668 13.23 41.3322 12.6873 41.3322 11.998C41.3322 11.294 41.6328 9.30667 42.2342 6.036H41.1562L41.2002 5.64H42.3222ZM48.18 6.234C48.62 5.706 49.17 5.442 49.83 5.442C50.5047 5.442 51.0253 5.61067 51.392 5.948C51.7587 6.28533 51.942 6.762 51.942 7.378V7.51C52.602 6.13133 53.46 5.442 54.516 5.442C55.6453 5.442 56.21 6.02867 56.21 7.202C56.21 7.686 56.0487 8.19933 55.726 8.742C55.4033 9.28467 55.0807 9.80533 54.758 10.304C54.4353 10.788 54.274 11.2207 54.274 11.602H53.746C53.746 11.0593 54.0613 10.326 54.692 9.402C55.3227 8.478 55.638 7.76667 55.638 7.268C55.638 6.75467 55.5353 6.41 55.33 6.234C55.1393 6.04333 54.846 5.948 54.45 5.948C54.0687 5.948 53.6873 6.11667 53.306 6.454C52.9393 6.79133 52.6313 7.21667 52.382 7.73C51.986 8.49267 51.722 9.116 51.59 9.6V9.622L50.798 14H48.158L49.61 5.882C49.17 5.926 48.8033 6.13133 48.51 6.498L48.18 6.234ZM64.4292 14.198C63.1386 14.198 62.4346 13.6333 62.3172 12.504C61.6719 13.6333 60.8579 14.198 59.8752 14.198C58.8926 14.198 58.1079 13.9047 57.5212 13.318C56.9492 12.7167 56.6632 11.8807 56.6632 10.81C56.6632 9.138 57.0739 7.82533 57.8952 6.872C58.7166 5.91867 59.7799 5.442 61.0852 5.442C62.1559 5.442 62.8672 5.948 63.2192 6.96C63.2926 6.52 63.3732 6.08 63.4612 5.64C64.5466 5.64 65.3532 5.596 65.8812 5.508L66.1672 5.442L64.6492 13.758C65.0892 13.714 65.4559 13.5087 65.7492 13.142L66.0792 13.406C65.6392 13.934 65.0892 14.198 64.4292 14.198ZM59.1492 11.932C59.1492 12.592 59.2299 13.054 59.3912 13.318C59.5672 13.5673 59.8312 13.692 60.1832 13.692C60.5352 13.692 60.8946 13.5013 61.2612 13.12C61.7452 12.6213 62.1339 11.9907 62.4272 11.228C62.4712 11.0373 62.5519 10.5827 62.6692 9.864C62.8012 9.13067 62.9112 8.52933 62.9992 8.06C62.9552 7.50267 62.8012 7.01867 62.5372 6.608C62.2732 6.19733 61.9432 5.992 61.5472 5.992C60.8286 5.992 60.2492 6.63733 59.8092 7.928C59.3692 9.204 59.1492 10.5387 59.1492 11.932ZM69.3875 13.626C70.8395 13.626 71.5655 12.5553 71.5655 10.414C71.5655 9.886 71.4848 9.26267 71.3235 8.544C71.1768 7.82533 71.0888 7.378 71.0595 7.202C70.1648 8.126 69.1602 8.68333 68.0455 8.874V8.346C69.1015 8.11133 70.0915 7.51 71.0155 6.542V6.454C71.0155 6.102 71.0668 5.75733 71.1695 5.42C71.2722 5.08267 71.3748 4.83333 71.4775 4.672L71.6315 4.43H72.1595C72.1595 5.07533 72.2622 5.66933 72.4675 6.212C72.6728 6.74 72.9002 7.17267 73.1495 7.51C73.3988 7.83267 73.6262 8.26533 73.8315 8.808C74.0368 9.336 74.1395 9.92267 74.1395 10.568C74.1395 11.6093 73.7435 12.4747 72.9515 13.164C72.1742 13.8533 71.2355 14.198 70.1355 14.198C69.0355 14.198 68.1995 13.9487 67.6275 13.45C67.0702 12.9513 66.7915 12.3793 66.7915 11.734C66.7915 11.074 66.9528 10.6047 67.2755 10.326C67.5982 10.0327 67.9795 9.886 68.4195 9.886C68.8595 9.886 69.2188 10.0327 69.4975 10.326C69.7908 10.6047 69.9375 10.9713 69.9375 11.426C69.9375 11.866 69.7982 12.24 69.5195 12.548C69.2408 12.856 68.8815 13.01 68.4415 13.01C68.2508 13.01 68.0528 12.9807 67.8475 12.922C68.1702 13.3913 68.6835 13.626 69.3875 13.626ZM77.4871 13.626C78.9391 13.626 79.6651 12.5553 79.6651 10.414C79.6651 9.886 79.5844 9.26267 79.4231 8.544C79.2764 7.82533 79.1884 7.378 79.1591 7.202C78.2644 8.126 77.2598 8.68333 76.1451 8.874V8.346C77.2011 8.11133 78.1911 7.51 79.1151 6.542V6.454C79.1151 6.102 79.1664 5.75733 79.2691 5.42C79.3718 5.08267 79.4744 4.83333 79.5771 4.672L79.7311 4.43H80.2591C80.2591 5.07533 80.3618 5.66933 80.5671 6.212C80.7724 6.74 80.9998 7.17267 81.2491 7.51C81.4984 7.83267 81.7258 8.26533 81.9311 8.808C82.1364 9.336 82.2391 9.92267 82.2391 10.568C82.2391 11.6093 81.8431 12.4747 81.0511 13.164C80.2738 13.8533 79.3351 14.198 78.2351 14.198C77.1351 14.198 76.2991 13.9487 75.7271 13.45C75.1698 12.9513 74.8911 12.3793 74.8911 11.734C74.8911 11.074 75.0524 10.6047 75.3751 10.326C75.6978 10.0327 76.0791 9.886 76.5191 9.886C76.9591 9.886 77.3184 10.0327 77.5971 10.326C77.8904 10.6047 78.0371 10.9713 78.0371 11.426C78.0371 11.866 77.8978 12.24 77.6191 12.548C77.3404 12.856 76.9811 13.01 76.5411 13.01C76.3504 13.01 76.1524 12.9807 75.9471 12.922C76.2698 13.3913 76.7831 13.626 77.4871 13.626ZM84.8827 5.882C84.5307 5.882 84.164 6.08733 83.7827 6.498L83.4527 6.234C83.5554 6.02867 83.7827 5.84533 84.1347 5.684C84.4867 5.52267 84.8754 5.442 85.3007 5.442C86.6354 5.442 87.3027 6.04333 87.3027 7.246C87.3027 7.75933 87.1707 8.676 86.9067 9.996C86.6427 11.316 86.5107 12.1813 86.5107 12.592C86.5107 13.2227 86.8114 13.538 87.4127 13.538C87.838 13.538 88.2487 13.2887 88.6447 12.79C89.0554 12.2913 89.4074 11.602 89.7007 10.722L90.6247 5.64C91.71 5.64 92.502 5.596 93.0007 5.508L93.2867 5.442L91.8127 13.758C92.2527 13.714 92.6194 13.5087 92.9127 13.142L93.2427 13.406C92.8027 13.934 92.2527 14.198 91.5927 14.198C90.9327 14.198 90.4194 14.0367 90.0527 13.714C89.686 13.3913 89.4954 12.9367 89.4807 12.35C88.8647 13.582 87.9554 14.198 86.7527 14.198C85.8874 14.198 85.2127 13.956 84.7287 13.472C84.2447 12.9733 84.0027 12.2913 84.0027 11.426C84.0027 10.9713 84.142 10.0987 84.4207 8.808C84.6994 7.50267 84.8534 6.52733 84.8827 5.882ZM99.2492 5.442C101.112 5.442 102.043 6.18267 102.043 7.664C102.043 8.588 101.603 9.292 100.723 9.776C99.8579 10.2453 98.6186 10.4873 97.0052 10.502C96.9759 11.03 96.9612 11.448 96.9612 11.756C96.9612 12.416 97.1079 12.9073 97.4012 13.23C97.7092 13.538 98.0906 13.692 98.5452 13.692C98.9999 13.692 99.4106 13.604 99.7772 13.428C100.159 13.252 100.459 13.0467 100.679 12.812C100.899 12.5627 101.09 12.306 101.251 12.042C101.545 11.558 101.691 11.25 101.691 11.118L102.087 11.294C102.043 11.5287 101.911 11.844 101.691 12.24C101.471 12.6213 101.229 12.9367 100.965 13.186C100.701 13.4353 100.313 13.67 99.7992 13.89C99.2859 14.0953 98.7139 14.198 98.0832 14.198C96.8952 14.198 95.9932 13.9193 95.3772 13.362C94.7759 12.79 94.4752 12.0127 94.4752 11.03C94.4752 9.28467 94.9079 7.92067 95.7732 6.938C96.6386 5.94067 97.7972 5.442 99.2492 5.442ZM101.493 7.664C101.493 7.18 101.347 6.784 101.053 6.476C100.775 6.15333 100.349 5.992 99.7772 5.992C99.2199 5.992 98.6699 6.32933 98.1272 7.004C97.5992 7.67867 97.2472 8.676 97.0712 9.996C100.019 9.98133 101.493 9.204 101.493 7.664Z" fill="white"/>
</svg>
